<svg width="76" height="76"><path d="M39.334 14.489c-.525-1.102-2.144-1.102-2.668 0L20.384 47.805a1.484 1.484 0 00-.087 1.081l4.979 16.459a5.506 5.506 0 00-3.599 5.158v4.012c0 .82.665 1.485 1.485 1.485h29.677a1.484 1.484 0 001.484-1.484v-4.012c0-2.364-1.5-4.384-3.599-5.159l4.98-16.459a1.485 1.485 0 00-.088-1.081L39.334 14.489zM38 47.483a2.23 2.23 0 012.227 2.226c-.123 2.954-4.332 2.953-4.453 0A2.23 2.23 0 0138 47.483zM51.354 73.03H24.646v-2.528a2.53 2.53 0 012.555-2.527h21.648a2.53 2.53 0 012.505 2.528v2.527zm-3.629-8.023h-19.45l-4.967-16.423 13.208-27.027V44.73a5.205 5.205 0 00-3.71 4.98c.285 6.892 10.105 6.89 10.39 0 0-2.35-1.567-4.34-3.711-4.98V21.56l13.208 27.025-4.968 16.423zM64.719.742a4.46 4.46 0 00-4.199 2.969H43.195V1.484c0-.82-.664-1.484-1.484-1.484h-7.422c-.82 0-1.484.665-1.484 1.484v2.227H15.48C13.76-.938 6.923.176 6.828 5.195c.096 5.02 6.933 6.132 8.652 1.485h17.325v2.226c0 .82.664 1.484 1.484 1.484h7.422c.82 0 1.484-.664 1.484-1.484V6.68H60.52c1.721 4.649 8.557 3.534 8.652-1.485A4.458 4.458 0 0064.719.742zM11.282 6.68a1.486 1.486 0 01-1.485-1.485c.082-1.969 2.888-1.968 2.969 0 0 .819-.666 1.485-1.484 1.485zm28.945.742h-4.453V2.969h4.453v4.453zm24.492-.742a1.486 1.486 0 01-1.485-1.485c.082-1.969 2.888-1.968 2.969 0 0 .819-.666 1.485-1.484 1.485z" fill="#9E9E9E"/></svg>