<svg xmlns="http://www.w3.org/2000/svg" width="13" height="15" viewBox="0 0 13 14"><path fill="currentColor" d="M3.715 0c.512 0 .93.39.93.875v.875h3.71V.875c0-.484.418-.875.93-.875.516 0 .93.39.93.875v.875h1.39c.77 0 1.395.586 1.395 1.313v1.312H0V3.062C0 2.337.625 1.75 1.395 1.75h1.39V.875c0-.484.414-.875.93-.875zM0 5.25h13v7.438c0 .726-.625 1.312-1.395 1.312H1.395C.625 14 0 13.414 0 12.687zm1.855 2.188v.875c0 .242.211.437.465.437h.93c.254 0 .465-.195.465-.438v-.874c0-.243-.211-.438-.465-.438h-.93c-.254 0-.465.195-.465.438zm3.715 0v.875c0 .242.211.437.465.437h.93c.254 0 .465-.195.465-.438v-.874c0-.243-.211-.438-.465-.438h-.93c-.254 0-.465.195-.465.438zM9.75 7c-.254 0-.465.195-.465.438v.875c0 .242.211.437.465.437h.93c.254 0 .465-.195.465-.438v-.874c0-.243-.211-.438-.465-.438zm-7.895 3.938v.874c0 .243.211.438.465.438h.93c.254 0 .465-.195.465-.438v-.874c0-.243-.211-.438-.465-.438h-.93c-.254 0-.465.195-.465.438zm4.18-.438c-.254 0-.465.195-.465.438v.874c0 .243.211.438.465.438h.93c.254 0 .465-.195.465-.438v-.874c0-.243-.211-.438-.465-.438zm3.25.438v.874c0 .243.211.438.465.438h.93c.254 0 .465-.195.465-.438v-.874c0-.243-.211-.438-.465-.438h-.93c-.254 0-.465.195-.465.438zm0 0"/></svg>