<svg width="18" height="14.81"><path d="M3 14.81a.466.466 0 01-.164-.03.4.4 0 01-.265-.38v-2.07H1.286A1.259 1.259 0 010 11.1V1.23A1.259 1.259 0 011.286 0h15.428A1.259 1.259 0 0118 1.23v9.87a1.259 1.259 0 01-1.286 1.23H5.766l-2.463 2.36a.432.432 0 01-.303.12zM1.286.82a.424.424 0 00-.429.41v9.87a.424.424 0 00.429.41H3a.417.417 0 01.428.41v1.49l1.857-1.78a.427.427 0 01.3-.12h11.126a.425.425 0 00.429-.41V1.23a.425.425 0 00-.429-.41H1.286zm4.771 5.34a.643.643 0 11-.643-.61.627.627 0 01.643.61zm3.586 0A.644.644 0 119 5.55a.627.627 0 01.643.61zm3.343 0a.644.644 0 11-.643-.61.627.627 0 01.643.61z"/></svg>