<svg width="18" height="12.38"><path d="M16.714 12.37H1.286A1.259 1.259 0 010 11.14v-9.9A1.268 1.268 0 011.286 0h15.428A1.268 1.268 0 0118 1.24v9.9a1.259 1.259 0 01-1.286 1.23zM1.286.83a.417.417 0 00-.429.41v9.9a.424.424 0 00.429.41h15.428a.425.425 0 00.429-.41v-9.9a.418.418 0 00-.429-.41H1.286zM9 6.42a1.312 1.312 0 01-.737-.23L.481.95A.4.4 0 01.375.38a.437.437 0 01.6-.1l7.782 5.24a.441.441 0 00.492 0L17.031.28a.435.435 0 01.6.1.4.4 0 01-.105.57L9.744 6.19A1.315 1.315 0 019 6.42zm8.32 5.71a.437.437 0 01-.3-.12l-6.613-6.36a.41.41 0 010-.59.443.443 0 01.606 0l6.613 6.37a.4.4 0 010 .58.436.436 0 01-.306.12zm-16.64 0a.436.436 0 01-.3-.12.4.4 0 010-.58l6.612-6.37a.444.444 0 01.607 0 .41.41 0 010 .59L.986 12.01a.439.439 0 01-.306.12z"/></svg>