<svg width="17" height="14" viewBox="0 0 17 14">
<path fill="currentColor"  d="M15.253 3.441C15.264 3.592 15.264 3.743 15.264 3.895C15.264 8.5 11.758 13.807 5.351 13.807C3.377 13.807 1.543 13.235 0 12.243C0.281 12.275 0.551 12.285 0.842 12.285C2.471 12.285 3.969 11.735 5.167 10.797C3.635 10.765 2.352 9.761 1.91 8.38C2.125 8.412 2.341 8.434 2.566 8.434C2.88 8.434 3.193 8.391 3.484 8.316C1.888 7.992 0.69 6.59 0.69 4.897C0.69 4.886 0.69 4.864 0.69 4.854C1.154 5.112 1.693 5.274 2.265 5.296C1.327 4.67 0.712 3.602 0.712 2.395C0.712 1.748 0.885 1.154 1.187 0.636C2.902 2.751 5.48 4.132 8.371 4.282C8.316 4.023 8.284 3.753 8.284 3.483C8.284 1.564 9.838 0 11.768 0C12.771 0 13.677 0.42 14.314 1.1C15.101 0.949 15.855 0.658 16.525 0.259C16.266 1.068 15.716 1.748 14.993 2.178C15.695 2.103 16.374 1.909 17 1.639C16.525 2.329 15.932 2.945 15.253 3.441Z" />
</svg>
