<svg width="66" height="80" viewBox="0 0 66 80">
<path d="M65.2102 69.9493C65.1455 69.3673 64.6611 68.9226 64.0758 68.9075C64.0207 68.906 62.0272 68.855 58.7941 68.7898C58.8202 66.0179 58.6421 62.9756 58.6332 62.8295C58.5974 62.2237 58.1049 61.7456 57.4983 61.7275C57.4447 61.7259 55.0622 61.6559 51.3843 61.5775C50.6505 55.7939 48.9843 51.0075 46.1697 46.5873C45.8221 46.0415 45.0977 45.8806 44.5519 46.2282C44.006 46.5759 43.8454 47.3001 44.1929 47.8461C46.7591 51.8765 48.3035 56.2532 49.0144 61.5295C44.514 61.4437 38.7397 61.3626 32.9999 61.3626C31.7497 61.3626 30.4379 61.3664 29.1005 61.374C28.4533 61.3776 27.9318 61.9053 27.9354 62.5526C27.939 63.1975 28.463 63.7178 29.1071 63.7178H29.114C30.4468 63.7101 31.7541 63.7064 32.9999 63.7064C42.9905 63.7064 53.0913 63.9529 56.3477 64.0401C56.3987 65.1725 56.4654 67.0278 56.4505 68.7443C50.4577 68.6329 41.6974 68.5053 33.0001 68.5053C24.3027 68.5053 15.5422 68.6329 9.54959 68.7443C9.53475 67.0278 9.60131 65.1725 9.6524 64.04C11.7449 63.984 16.6619 63.8617 22.5294 63.7823C23.1766 63.7735 23.6941 63.2418 23.6852 62.5946C23.6765 61.9475 23.143 61.4248 22.4976 61.4389C20.2344 61.4695 18.1126 61.5065 16.2382 61.5437C16.2821 58.802 15.7912 55.5382 15.2332 51.8373C14.2569 45.3623 13.1505 38.0234 14.5572 31.0087C16.1682 22.9764 20.8351 16.9775 28.8249 12.6693C29.2174 12.4578 29.4557 12.0417 29.4399 11.5961C29.4394 11.5837 29.4187 10.3162 30.2426 8.93965C31.2582 7.24246 33.0769 6.13277 35.6572 5.63246L36.4235 12.859C36.4633 13.2346 36.6821 13.5684 37.0108 13.7548C37.0955 13.8029 45.439 18.5811 51.6432 25.8215C51.6321 26.8545 51.4599 29.7793 49.9501 31.7829C48.9663 31.5192 47.0074 30.8681 45.2793 29.532C44.9826 29.3028 44.5944 29.2295 44.2347 29.3339C44.1468 29.3595 35.3762 31.8514 28.1622 28.6356C27.5713 28.3721 26.8782 28.6378 26.6147 29.2289C26.3513 29.82 26.6169 30.5129 27.208 30.7764C29.6483 31.864 32.2102 32.372 34.6038 32.5515C34.981 36.3451 37.2474 39.0439 39.8372 42.1256C40.2321 42.5954 40.6405 43.0812 41.0502 43.5807C41.2819 43.8632 41.6182 44.0093 41.9569 44.0093C42.2185 44.0093 42.4816 43.9221 42.6996 43.7436C43.1999 43.3329 43.2729 42.5945 42.8624 42.0942C42.4437 41.5839 42.031 41.0926 41.6316 40.6176C39.2927 37.8345 37.389 35.5675 36.9758 32.6309C40.3729 32.6065 43.1566 32.0209 44.3187 31.7348C47.0622 33.6648 50.0391 34.2159 50.1716 34.2396C50.5588 34.3082 50.9535 34.18 51.2247 33.8965C54.223 30.765 53.9916 25.5461 53.9804 25.3253C53.9672 25.0706 53.8715 24.8271 53.7074 24.6318C48.0305 17.8714 40.7124 13.2359 38.6918 12.024L37.8585 4.16559C37.8255 3.85481 37.6698 3.56981 37.4255 3.37449C37.1813 3.17918 36.8691 3.08887 36.5588 3.12512C31.6152 3.69527 29.3016 5.9473 28.2312 7.73605C27.4797 8.99137 27.223 10.1804 27.1374 10.9223C27.1147 10.935 27.093 10.9481 27.0704 10.9607C26.9782 5.24918 25.3715 0.955743 25.2949 0.754805C25.1819 0.458555 24.954 0.220743 24.6627 0.0954305C24.3718 -0.0300382 24.0421 -0.0316007 23.7493 0.090118C23.4379 0.219805 16.0508 3.36356 9.94975 11.8186C9.571 12.3432 9.68944 13.0759 10.2143 13.4546C10.7388 13.8332 11.4716 13.715 11.8504 13.1901C16.1694 7.20481 21.2619 4.02356 23.4991 2.82387C24.0185 4.62746 24.8497 8.22387 24.7163 12.3936C17.8904 16.8892 13.8018 22.8561 12.2591 30.5481C10.7715 37.966 11.9105 45.521 12.9154 52.1867C12.9976 52.7314 13.078 53.2657 13.1555 53.7901C10.6847 54.577 8.03256 54.6639 6.72491 54.647C3.05366 40.144 3.84116 27.717 9.06834 17.699C9.36772 17.1251 9.14522 16.4173 8.57147 16.1179C7.99756 15.8187 7.28975 16.0411 6.99037 16.6148C1.38397 27.3598 0.605375 40.64 4.676 56.0862C4.80319 56.5693 5.22287 56.9186 5.721 56.9561C5.78116 56.9606 6.26459 56.995 7.02459 56.995C8.49709 56.995 11.0071 56.8653 13.4863 56.1395C13.7533 58.172 13.9265 60.007 13.8933 61.5928C10.6218 61.665 8.53662 61.7265 8.50116 61.7275C7.89459 61.7456 7.40225 62.2237 7.36631 62.8295C7.35756 62.9756 7.17944 66.0181 7.20537 68.7898C3.97225 68.855 1.97866 68.906 1.92366 68.9075C1.33834 68.9226 0.853969 69.3673 0.789282 69.9493C0.769907 70.1234 0.320375 74.262 0.788969 78.5537C0.852719 79.1365 1.33741 79.5828 1.92366 79.5979C1.95756 79.5989 5.36147 79.6864 10.4816 79.7787C11.1229 79.7939 11.6629 79.2751 11.6744 78.6281C11.686 77.981 11.1708 77.447 10.5238 77.4353C7.07397 77.3732 4.40553 77.3132 3.02538 77.2804C2.84069 74.8278 2.94366 72.5028 3.03287 71.2248C6.77834 71.1365 19.9619 70.8492 32.9996 70.8492C46.0372 70.8492 59.2208 71.1365 62.9663 71.2248C63.0555 72.5029 63.1583 74.8278 62.9738 77.2804C59.2385 77.3684 46.046 77.6562 32.9999 77.6562C28.0357 77.6562 22.5544 77.615 16.7085 77.534C16.7029 77.5339 16.6974 77.5339 16.6919 77.5339C16.0522 77.5339 15.5294 78.0479 15.5205 78.6895C15.5115 79.3368 16.0288 79.8685 16.676 79.8776C22.5329 79.9587 28.0249 80 32.9999 80C48.3602 80 63.9204 79.602 64.0758 79.5979C64.6621 79.5828 65.1468 79.1367 65.2105 78.5537C65.6791 74.2618 65.2296 70.1234 65.2102 69.9493Z" fill="#9E9E9E"/>
</svg>
