<svg width="16" height="16" viewBox="0 0 16 16">
<path d="M0.198 4.969H3.636V15.292H0.198V4.969ZM1.938 0C0.771 0 0 0.771 0 1.782C0 2.771 0.74 3.563 1.896 3.563H1.917C3.115 3.563 3.865 2.771 3.855 1.782C3.844 0.771 3.115 0 1.938 0ZM12.052 4.729C10.223 4.729 9.409 5.731 8.958 6.438V4.969H5.531C5.531 4.969 5.573 5.938 5.531 15.292H8.958V9.531C8.958 9.219 8.99 8.916 9.072 8.688C9.323 8.073 9.884 7.438 10.834 7.438C12.072 7.438 12.572 8.386 12.572 9.771V15.292H16V9.375C16 6.208 14.312 4.729 12.052 4.729Z"/>
</svg>
