<svg width="76" height="76" viewBox="0 0 76 76">
<path d="M39.3336 14.4889C38.8093 13.3872 37.1905 13.3875 36.6664 14.4889L20.3844 47.8047C20.2199 48.1413 20.1887 48.5277 20.2972 48.8863L25.2758 65.3448C23.1775 66.1192 21.6773 68.1393 21.6773 70.5033V74.5152C21.6773 75.335 22.3418 75.9996 23.1616 75.9996L52.8385 76C53.2322 76 53.6098 75.8436 53.8881 75.5653C54.1664 75.2869 54.3229 74.9093 54.3229 74.5157V70.5037C54.3229 68.1399 52.8226 66.1196 50.7245 65.3453L55.7033 48.8865C55.8118 48.5279 55.7807 48.1415 55.6162 47.8048L39.3336 14.4889ZM38.0002 47.4827C39.2279 47.4827 40.2268 48.4815 40.2268 49.7093C40.1044 52.6631 35.8954 52.6621 35.7735 49.7093C35.7737 48.4815 36.7725 47.4827 38.0002 47.4827ZM51.3541 73.0313L24.646 73.0308V70.5033C24.646 69.1158 25.7696 67.9861 27.1547 67.976C27.1701 67.9761 27.1856 67.9761 27.201 67.9758L48.7961 67.9763C48.8138 67.9767 48.8315 67.9767 48.8491 67.9764C50.2326 67.9885 51.3541 69.1176 51.3541 70.5037V73.0313ZM47.725 65.0077L28.2753 65.0073L23.3075 48.5847L36.516 21.558V44.7301C34.3723 45.3703 32.8051 47.3603 32.8051 49.7094C33.0905 56.6018 42.9114 56.5995 43.1958 49.7094C43.1958 47.3603 41.6286 45.3703 39.4849 44.7301V21.5592L52.693 48.5852L47.725 65.0077Z" fill="#9E9E9E"/>
<path d="M64.7187 0.742182C62.7835 0.742182 61.1326 1.98311 60.52 3.71091H43.1954V1.48436C43.1954 0.664549 42.5308 0 41.711 0H34.2892C33.4694 0 32.8049 0.664549 32.8049 1.48436V3.71091H15.4804C13.76 -0.937524 6.92319 0.175748 6.82849 5.19527C6.92364 10.2155 13.7608 11.3273 15.4803 6.67963H32.8049V8.90618C32.8049 9.72599 33.4694 10.3905 34.2892 10.3905H41.711C42.5308 10.3905 43.1954 9.72599 43.1954 8.90618V6.67963H60.52C62.241 11.3287 69.0771 10.2142 69.1718 5.19527C69.1718 2.73984 67.1741 0.742182 64.7187 0.742182ZM11.2816 6.67963C10.4631 6.67963 9.79722 6.01375 9.79722 5.19527C9.87871 3.22597 12.6848 3.22656 12.7659 5.19527C12.7659 6.01375 12.1002 6.67963 11.2816 6.67963ZM40.2267 7.42182H35.7736V2.96873H40.2267V7.42182ZM64.7187 6.67963C63.9002 6.67963 63.2343 6.01375 63.2343 5.19527C63.3158 3.22597 66.1218 3.22656 66.203 5.19527C66.203 6.01375 65.5371 6.67963 64.7187 6.67963Z" fill="#9E9E9E"/>
</svg>
