<svg width="58" height="64"><path d="M57.75 37.975c0-3.677-1.782-7.016-4.742-9.051a9.659 9.659 0 002.092-5.999 9.693 9.693 0 00-4.646-8.252c.097-.491.146-.992.146-1.498 0-4.246-3.454-7.7-7.7-7.7-.53 0-1.05.053-1.558.157C40.766 2.434 37.962 0 34.6 0A6.846 6.846 0 0029 2.909 6.846 6.846 0 0023.4 0c-3.362 0-6.166 2.435-6.742 5.633a7.68 7.68 0 00-.66-.106 1.25 1.25 0 10-.289 2.483c.538.063 1.06.209 1.552.434l.015.008a5.173 5.173 0 012.327 2.123 1.25 1.25 0 102.165-1.25A7.654 7.654 0 0019.06 6.57 4.355 4.355 0 0123.4 2.5a4.355 4.355 0 014.35 4.35v25.517a9.571 9.571 0 01-5.57-2.743 1.25 1.25 0 00-1.769 1.768 12.054 12.054 0 007.339 3.494v20.539a6.082 6.082 0 01-6.075 6.075 6.094 6.094 0 01-5.397-3.286 9.646 9.646 0 002.07-.318 1.25 1.25 0 10-.648-2.415 7.18 7.18 0 01-3.006.15l-.01-.001a7.115 7.115 0 01-5.982-6.955 10.969 10.969 0 005.395-.075 1.25 1.25 0 10-.647-2.415 8.513 8.513 0 01-5.386-.33l-.025-.008a8.468 8.468 0 01-5.289-7.872 8.449 8.449 0 014.753-7.631l.022-.01a8.559 8.559 0 011.525-.57 1.25 1.25 0 10-.647-2.414 10.84 10.84 0 00-1.147.379A7.157 7.157 0 015.4 22.925a7.183 7.183 0 013.056-5.861 7.702 7.702 0 002.794 2.78 1.25 1.25 0 101.25-2.165 5.203 5.203 0 01-2.308-2.787l-.006-.015a5.183 5.183 0 01-.25-1.093 1.25 1.25 0 00-2.484.29c.024.2.055.4.095.6a9.693 9.693 0 00-4.647 8.25c0 2.192.748 4.304 2.092 5.998A10.928 10.928 0 00.25 37.975a10.95 10.95 0 005.984 9.792 9.65 9.65 0 007.238 10.161A8.598 8.598 0 0021.675 64 8.578 8.578 0 0029 59.88 8.578 8.578 0 0036.325 64a8.598 8.598 0 008.203-6.072 9.649 9.649 0 007.238-10.161 10.952 10.952 0 005.984-9.792zm-7.814 7.882a1.25 1.25 0 00-.76 1.39c.082.437.124.883.124 1.328a7.117 7.117 0 01-5.992 7.056 1.25 1.25 0 00-1.026.99 6.086 6.086 0 01-5.957 4.879 6.082 6.082 0 01-6.075-6.075v-5.171h1.614l1.253 1.253a3.756 3.756 0 00.732 4.268A3.738 3.738 0 0036.5 56.87c.96 0 1.92-.366 2.652-1.096a3.754 3.754 0 000-5.304 3.756 3.756 0 00-4.268-.732l-1.619-1.619a1.25 1.25 0 00-.884-.366H30.25v-4.055h4.11a3.738 3.738 0 003.535 2.498c.96 0 1.92-.365 2.651-1.096a3.755 3.755 0 000-5.303 3.755 3.755 0 00-5.303 0c-.41.408-.704.89-.884 1.401H30.25v-6.25h12.383l1.252 1.252a3.737 3.737 0 00-.365 1.617c0 1.002.39 1.943 1.098 2.652a3.738 3.738 0 002.652 1.096c.96 0 1.92-.366 2.652-1.096a3.726 3.726 0 001.098-2.652c0-1.002-.39-1.944-1.098-2.652a3.756 3.756 0 00-4.268-.732l-1.619-1.619a1.25 1.25 0 00-.884-.366H30.25v-3.905h9.848c.331 0 .65-.131.883-.366l1.618-1.617a3.737 3.737 0 001.617.365c1.002 0 1.944-.39 2.652-1.099a3.726 3.726 0 001.098-2.652c0-1.001-.39-1.943-1.098-2.651a3.725 3.725 0 00-2.652-1.099c-1.001 0-1.943.39-2.651 1.099a3.725 3.725 0 00-1.099 2.651c0 .57.127 1.12.365 1.618l-1.251 1.251h-9.33V20.2h3.66c.332 0 .65-.132.884-.367l1.617-1.617a3.737 3.737 0 001.618.365 3.72 3.72 0 002.651-1.099 3.725 3.725 0 001.099-2.651c0-1.002-.39-1.944-1.099-2.652a3.726 3.726 0 00-2.651-1.098c-1.002 0-1.944.39-2.652 1.098a3.726 3.726 0 00-1.098 2.652c0 .569.126 1.118.365 1.617L33.392 17.7H30.25V6.85A4.355 4.355 0 0134.6 2.5a4.355 4.355 0 014.35 4.35v.466a1.25 1.25 0 001.774 1.135 5.206 5.206 0 017.086 6.442 1.25 1.25 0 00.652 1.546 7.18 7.18 0 014.138 6.486 7.158 7.158 0 01-2.407 5.35 1.25 1.25 0 00.282 2.058 8.45 8.45 0 014.775 7.642 8.468 8.468 0 01-5.314 7.882zM36.5 51.873a1.251 1.251 0 01.884 2.133 1.252 1.252 0 01-1.768 0 1.251 1.251 0 01.884-2.133zm.51-10.307a1.252 1.252 0 011.769 0c.487.487.487 1.28 0 1.767a1.252 1.252 0 01-1.768 0 1.252 1.252 0 010-1.767zm9.376-4.632a1.25 1.25 0 01.884-.365 1.247 1.247 0 011.25 1.25 1.252 1.252 0 01-2.5 0c0-.335.13-.649.366-.885zM43.333 24.06a1.241 1.241 0 01-.367-.884c0-.334.13-.648.367-.884.236-.236.55-.366.883-.366.334 0 .648.13.884.366s.366.55.366.884c0 .334-.13.648-.366.884s-.55.366-.884.366a1.24 1.24 0 01-.883-.366zm-6.188-8.344a1.242 1.242 0 01-.366-.884c0-.334.13-.648.366-.884s.55-.366.884-.366c.334 0 .648.13.884.366s.366.55.366.884c0 .334-.13.648-.366.884s-.55.366-.884.366c-.334 0-.648-.13-.884-.366z" fill="#9E9E9E"/></svg>