<svg width="66" height="80"><path d="M65.21 69.95a1.172 1.172 0 00-1.134-1.043c-.055-.001-2.049-.052-5.282-.117.026-2.772-.152-5.814-.16-5.96a1.172 1.172 0 00-1.136-1.102c-.053-.002-2.436-.072-6.114-.15-.733-5.784-2.4-10.57-5.214-14.99a1.172 1.172 0 00-1.977 1.258c2.566 4.03 4.11 8.407 4.821 13.684A863.24 863.24 0 0033 61.362c-1.25 0-2.562.003-3.9.011a1.172 1.172 0 00.007 2.344h.007A675.92 675.92 0 0133 63.706c9.99 0 20.091.247 23.348.334.05 1.132.117 2.988.102 4.704-5.992-.111-14.753-.239-23.45-.239s-17.458.128-23.45.24a93.015 93.015 0 01.102-4.705c2.093-.056 7.01-.178 12.877-.258a1.172 1.172 0 10-.031-2.343c-2.264.03-4.385.068-6.26.105.044-2.742-.447-6.006-1.005-9.707-.976-6.475-2.083-13.814-.676-20.828 1.611-8.033 6.278-14.032 14.268-18.34.392-.211.63-.627.615-1.073 0-.012-.021-1.28.803-2.656 1.015-1.698 2.834-2.807 5.414-3.308l.767 7.227c.04.376.258.71.587.896.084.048 8.428 4.826 14.632 12.066-.01 1.034-.183 3.958-1.693 5.962-.984-.264-2.943-.915-4.67-2.251a1.174 1.174 0 00-1.045-.198c-.088.026-8.859 2.517-16.073-.698a1.172 1.172 0 00-.954 2.14c2.44 1.088 5.002 1.596 7.396 1.775.377 3.794 2.643 6.493 5.233 9.575.395.47.803.955 1.213 1.455a1.17 1.17 0 001.65.163c.5-.411.573-1.15.162-1.65-.418-.51-.831-1.001-1.23-1.476-2.34-2.784-4.243-5.05-4.656-7.987 3.397-.025 6.18-.61 7.343-.896 2.743 1.93 5.72 2.48 5.853 2.505.387.068.782-.06 1.053-.343 2.998-3.132 2.767-8.35 2.755-8.572a1.172 1.172 0 00-.273-.693c-5.676-6.76-12.995-11.396-15.015-12.608l-.834-7.858a1.171 1.171 0 00-1.3-1.04c-4.943.57-7.256 2.821-8.327 4.61a8.06 8.06 0 00-1.094 3.186l-.067.039C26.978 5.249 25.372.956 25.295.755A1.172 1.172 0 0023.749.09c-.311.13-7.698 3.274-13.8 11.729a1.172 1.172 0 101.901 1.371c4.32-5.985 9.412-9.166 11.65-10.366.518 1.803 1.35 5.4 1.216 9.57-6.826 4.495-10.914 10.462-12.457 18.154-1.488 7.418-.348 14.973.656 21.639.083.544.163 1.079.24 1.603-2.47.787-5.122.874-6.43.857-3.671-14.503-2.884-26.93 2.343-36.948a1.172 1.172 0 00-2.078-1.084C1.384 27.36.605 40.64 4.676 56.086c.127.483.547.833 1.045.87.06.005.544.039 1.304.039 1.472 0 3.982-.13 6.461-.855.267 2.032.44 3.867.407 5.453-3.271.072-5.356.133-5.392.134a1.172 1.172 0 00-1.135 1.103c-.008.146-.187 3.188-.16 5.96-3.234.065-5.227.116-5.282.117-.586.016-1.07.46-1.135 1.042-.02.174-.469 4.313 0 8.605a1.172 1.172 0 001.135 1.044c.034 0 3.437.088 8.558.18a1.172 1.172 0 00.042-2.343c-3.45-.062-6.118-.122-7.499-.155-.184-2.452-.081-4.777.008-6.055 3.745-.088 16.929-.376 29.967-.376 13.037 0 26.22.287 29.966.376.09 1.278.192 3.603.008 6.055-3.735.088-16.928.376-29.974.376-4.964 0-10.446-.041-16.291-.122h-.017a1.172 1.172 0 00-.016 2.344C22.533 79.958 28.025 80 33 80c15.36 0 30.92-.398 31.076-.402a1.172 1.172 0 001.135-1.044c.468-4.292.019-8.43 0-8.605z" fill="#9E9E9E"/></svg>